<?xml version="1.0" standalone="no"?>
<!DOCTYPE svg PUBLIC "-//W3C//DTD SVG 20010904//EN"
 "http://www.w3.org/TR/2001/REC-SVG-20010904/DTD/svg10.dtd">
<svg version="1.0" xmlns="http://www.w3.org/2000/svg"
 width="96.000000pt" height="96.000000pt" viewBox="0 0 96.000000 96.000000"
 preserveAspectRatio="xMidYMid meet">
<metadata>
Created by potrace 1.11, written by Peter Selinger 2001-2013
</metadata>
<g transform="translate(0.000000,96.000000) scale(0.100000,-0.100000)"
fill="#000000" stroke="none">
<path d="M573 824 c-46 -23 -45 -61 1 -102 66 -58 68 -96 5 -107 -48 -8 -185
-9 -330 -1 -116 6 -160 -2 -195 -35 -19 -18 -21 -26 -13 -52 5 -18 9 -81 8
-142 -1 -158 0 -164 20 -210 27 -62 85 -88 197 -87 46 0 88 3 92 6 18 11 124
18 287 20 251 3 264 14 292 258 23 204 -15 252 -198 252 -90 0 -95 1 -94 20 3
29 -10 51 -52 90 -41 37 -40 60 4 77 23 9 37 7 78 -11 71 -31 88 -31 130 -3
20 13 43 22 52 19 9 -4 13 -1 11 6 -8 22 -36 20 -74 -6 -38 -26 -43 -25 -111
5 -52 23 -68 23 -110 3z"/>
</g>
</svg>
